# xmcd
#
# Track frame offsets:
#	150
#	16199
#	30828
#	47002
#	64797
#	77131
#	92253
#	108557
#	123644
#	138220
#	154273
#
# Disc length: 2309 seconds
#
# Revision: 0
# Processed by: cddbd v1.5.2PL0 Copyright (c) Steve Scherf et al.
# Submitted via: audiograbber 1.83.01
#
DISCID=7f09030b
DTITLE=Smokie - Smokie's Greatest Hits Volume 2
DYEAR=1980
DGENRE=Pop Rock
TTITLE0=It's Your Life 
TTITLE1=Oh Carol
TTITLE2=Mexican Girl 
TTITLE3=Stumblin' In
TTITLE4=Needles And Pins
TTITLE5=Do To Me 
TTITLE6=Babe It's Up To You 
TTITLE7=Take Good Care Of My Baby
TTITLE8=San Francisco Bay
TTITLE9=For A Few Dollars More
TTITLE10=Run To Me
EXTD=
EXTT0=
EXTT1=
EXTT2=
EXTT3=
EXTT4=
EXTT5=
EXTT6=
EXTT7=
EXTT8=
EXTT9=
EXTT10=
PLAYORDER=
